<?xml version="1.0" encoding="UTF-8" standalone="no"?>
<!DOCTYPE svg PUBLIC "-//W3C//DTD SVG 1.1//EN" "http://www.w3.org/Graphics/SVG/1.1/DTD/svg11.dtd">
<svg width="100%" height="100%" viewBox="0 0 30 40" version="1.1" xmlns="http://www.w3.org/2000/svg" xmlns:xlink="http://www.w3.org/1999/xlink" xml:space="preserve" xmlns:serif="http://www.serif.com/" style="fill-rule:evenodd;clip-rule:evenodd;stroke-linecap:round;stroke-linejoin:round;stroke-miterlimit:1.5;">
    <g transform="matrix(1,0,0,1,0.25,0)">
        <g transform="matrix(1.04695,0,0,1.06931,2,-3.77221)">
            <path d="M25.289,5.758L25.289,39.172C25.289,40.145 24.482,40.935 23.488,40.935L0.846,40.935C-0.148,40.935 -0.955,40.145 -0.955,39.172L-0.955,5.758C-0.955,4.785 -0.148,3.995 0.846,3.995L23.488,3.995C24.482,3.995 25.289,4.785 25.289,5.758ZM24.334,5.758C24.334,5.301 23.955,4.93 23.488,4.93L0.846,4.93C0.379,4.93 0,5.301 0,5.758L0,39.172C0,39.629 0.379,40 0.846,40L23.488,40C23.955,40 24.334,39.629 24.334,39.172L24.334,5.758Z"/>
        </g>
        <g transform="matrix(1.08901,0,0,0.249142,1.5,29.5238)">
            <path d="M24.334,6.149C24.334,5.476 24.209,4.93 24.055,4.93L0.279,4.93C0.125,4.93 0,5.476 0,6.149L0,38.781C0,39.454 0.125,40 0.279,40L24.055,40C24.209,40 24.334,39.454 24.334,38.781L24.334,6.149Z"/>
        </g>
        <g transform="matrix(1.07555,0,0,1.04243,-0.0225352,-0.208294)">
            <g transform="matrix(1.14067,0,0,1.14067,-0.0359355,-1.77957)">
                <path d="M10.284,5.815C14.492,5.815 17.909,9.232 17.909,13.44C17.909,17.649 14.492,21.066 10.284,21.066C6.075,21.066 2.658,17.649 2.658,13.44C2.658,9.232 6.075,5.815 10.284,5.815ZM10.284,8.338C7.445,8.338 5.103,10.602 5.103,13.44C5.103,16.279 7.445,18.543 10.284,18.543C13.122,18.543 15.464,16.279 15.464,13.44C15.464,10.602 13.122,8.338 10.284,8.338Z"/>
            </g>
            <g transform="matrix(0.707107,-0.707107,0.335661,0.335661,6.82452,22.2886)">
                <path d="M9.622,10.479L9.622,28.041" style="fill:none;stroke:black;stroke-width:3.58px;"/>
            </g>
        </g>
        <g transform="matrix(1,0,0,1,1,0.189759)">
            <path d="M11.556,10.584L11.556,16.872" style="fill:none;stroke:black;stroke-width:3px;"/>
            <g transform="matrix(4.00086e-17,-1,1,4.13667e-17,-2.17273,25.2837)">
                <path d="M11.556,10.584L11.556,16.872" style="fill:none;stroke:black;stroke-width:3px;"/>
            </g>
        </g>
    </g>
</svg>
