<?xml version="1.0" encoding="UTF-8" standalone="no"?>
<!DOCTYPE svg PUBLIC "-//W3C//DTD SVG 1.1//EN" "http://www.w3.org/Graphics/SVG/1.1/DTD/svg11.dtd">
<svg width="100%" height="100%" viewBox="0 0 128 128" version="1.1" xmlns="http://www.w3.org/2000/svg" xmlns:xlink="http://www.w3.org/1999/xlink" xml:space="preserve" xmlns:serif="http://www.serif.com/" style="fill-rule:evenodd;clip-rule:evenodd;stroke-linejoin:round;stroke-miterlimit:2;">
    <g transform="matrix(1,0,0,1,77.4309,43.5242)">
        <g transform="matrix(1.4647,0,0,1.4647,-3.1985,-14.2561)">
            <g transform="matrix(1.04695,0,0,1.06931,2,-3.77221)">
                <path d="M25.289,5.758L25.289,39.172C25.289,40.145 24.482,40.935 23.488,40.935L0.846,40.935C-0.148,40.935 -0.955,40.145 -0.955,39.172L-0.955,5.758C-0.955,4.785 -0.148,3.995 0.846,3.995L23.488,3.995C24.482,3.995 25.289,4.785 25.289,5.758ZM24.334,5.758C24.334,5.301 23.955,4.93 23.488,4.93L0.846,4.93C0.379,4.93 0,5.301 0,5.758L0,39.172C0,39.629 0.379,40 0.846,40L23.488,40C23.955,40 24.334,39.629 24.334,39.172L24.334,5.758Z"/>
            </g>
            <g transform="matrix(1.08901,0,0,0.249142,1.5,29.5238)">
                <path d="M24.334,6.149C24.334,5.476 24.209,4.93 24.055,4.93L0.279,4.93C0.125,4.93 0,5.476 0,6.149L0,38.781C0,39.454 0.125,40 0.279,40L24.055,40C24.209,40 24.334,39.454 24.334,38.781L24.334,6.149Z"/>
            </g>
            <g transform="matrix(1.96204,0,0,0.732292,-101.177,-32.7314)">
                <path d="M65.109,48.624C65.109,48.323 65.017,48.078 64.905,48.078L53.08,48.078C52.968,48.078 52.876,48.323 52.876,48.624L52.876,54.36C52.876,54.661 52.968,54.906 53.08,54.906L64.905,54.906C65.017,54.906 65.109,54.661 65.109,54.36L65.109,48.624Z"/>
            </g>
            <g transform="matrix(1.64746,0,0,1.02521,-84.5428,-40.8143)">
                <path d="M65.109,48.624C65.109,48.323 64.956,48.078 64.769,48.078L53.216,48.078C53.029,48.078 52.876,48.323 52.876,48.624L52.876,54.36C52.876,54.661 53.029,54.906 53.216,54.906L64.769,54.906C64.956,54.906 65.109,54.661 65.109,54.36L65.109,48.624Z"/>
            </g>
            <g transform="matrix(1.79854,0,0,0.87875,-92.5313,-25.7729)">
                <path d="M65.109,48.624C65.109,48.323 64.989,48.078 64.842,48.078L53.143,48.078C52.996,48.078 52.876,48.323 52.876,48.624L52.876,54.36C52.876,54.661 52.996,54.906 53.143,54.906L64.842,54.906C64.989,54.906 65.109,54.661 65.109,54.36L65.109,48.624Z"/>
            </g>
        </g>
        <g transform="matrix(1.53347,0,0,1.56622,-60.2691,-19.7812)">
            <g transform="matrix(0.304802,0,0,0.304802,-2.4229,2.96916)">
                <path d="M25.289,5.758L25.289,39.172C25.289,40.145 24.482,40.935 23.488,40.935L0.846,40.935C-0.148,40.935 -0.955,40.145 -0.955,39.172L-0.955,5.758C-0.955,4.785 -0.148,3.995 0.846,3.995L23.488,3.995C24.482,3.995 25.289,4.785 25.289,5.758Z"/>
            </g>
            <g transform="matrix(0.304802,0,0,0.304802,-2.4229,15.1003)">
                <path d="M25.289,5.758L25.289,39.172C25.289,40.145 24.482,40.935 23.488,40.935L0.846,40.935C-0.148,40.935 -0.955,40.145 -0.955,39.172L-0.955,5.758C-0.955,4.785 -0.148,3.995 0.846,3.995L23.488,3.995C24.482,3.995 25.289,4.785 25.289,5.758Z"/>
            </g>
            <g transform="matrix(0.304802,0,0,0.304802,-2.4229,27.2314)">
                <path d="M25.289,5.758L25.289,39.172C25.289,40.145 24.482,40.935 23.488,40.935L0.846,40.935C-0.148,40.935 -0.955,40.145 -0.955,39.172L-0.955,5.758C-0.955,4.785 -0.148,3.995 0.846,3.995L23.488,3.995C24.482,3.995 25.289,4.785 25.289,5.758Z"/>
            </g>
            <g transform="matrix(0.304802,0,0,0.304802,6.70672,2.96916)">
                <path d="M25.289,5.758L25.289,39.172C25.289,40.145 24.482,40.935 23.488,40.935L0.846,40.935C-0.148,40.935 -0.955,40.145 -0.955,39.172L-0.955,5.758C-0.955,4.785 -0.148,3.995 0.846,3.995L23.488,3.995C24.482,3.995 25.289,4.785 25.289,5.758Z"/>
            </g>
            <g transform="matrix(0.304802,0,0,0.304802,6.70672,15.1003)">
                <path d="M25.289,5.758L25.289,39.172C25.289,40.145 24.482,40.935 23.488,40.935L0.846,40.935C-0.148,40.935 -0.955,40.145 -0.955,39.172L-0.955,5.758C-0.955,4.785 -0.148,3.995 0.846,3.995L23.488,3.995C24.482,3.995 25.289,4.785 25.289,5.758Z"/>
            </g>
            <g transform="matrix(0.304802,0,0,0.304802,6.70672,27.2314)">
                <path d="M25.289,5.758L25.289,39.172C25.289,40.145 24.482,40.935 23.488,40.935L0.846,40.935C-0.148,40.935 -0.955,40.145 -0.955,39.172L-0.955,5.758C-0.955,4.785 -0.148,3.995 0.846,3.995L23.488,3.995C24.482,3.995 25.289,4.785 25.289,5.758Z"/>
            </g>
            <g transform="matrix(0.304802,0,0,0.304802,15.8363,2.96916)">
                <path d="M25.289,5.758L25.289,39.172C25.289,40.145 24.482,40.935 23.488,40.935L0.846,40.935C-0.148,40.935 -0.955,40.145 -0.955,39.172L-0.955,5.758C-0.955,4.785 -0.148,3.995 0.846,3.995L23.488,3.995C24.482,3.995 25.289,4.785 25.289,5.758Z"/>
            </g>
            <g transform="matrix(0.304802,0,0,0.304802,15.8363,15.1003)">
                <path d="M25.289,5.758L25.289,39.172C25.289,40.145 24.482,40.935 23.488,40.935L0.846,40.935C-0.148,40.935 -0.955,40.145 -0.955,39.172L-0.955,5.758C-0.955,4.785 -0.148,3.995 0.846,3.995L23.488,3.995C24.482,3.995 25.289,4.785 25.289,5.758Z"/>
            </g>
            <g transform="matrix(0.304802,0,0,0.304802,15.8363,27.2314)">
                <path d="M25.289,5.758L25.289,39.172C25.289,40.145 24.482,40.935 23.488,40.935L0.846,40.935C-0.148,40.935 -0.955,40.145 -0.955,39.172L-0.955,5.758C-0.955,4.785 -0.148,3.995 0.846,3.995L23.488,3.995C24.482,3.995 25.289,4.785 25.289,5.758Z"/>
            </g>
            <g transform="matrix(0.304802,0,0,0.304802,24.966,2.96916)">
                <path d="M25.289,5.758L25.289,39.172C25.289,40.145 24.482,40.935 23.488,40.935L0.846,40.935C-0.148,40.935 -0.955,40.145 -0.955,39.172L-0.955,5.758C-0.955,4.785 -0.148,3.995 0.846,3.995L23.488,3.995C24.482,3.995 25.289,4.785 25.289,5.758Z"/>
            </g>
            <g transform="matrix(0.304802,0,0,0.304802,24.966,15.1003)">
                <path d="M25.289,5.758L25.289,39.172C25.289,40.145 24.482,40.935 23.488,40.935L0.846,40.935C-0.148,40.935 -0.955,40.145 -0.955,39.172L-0.955,5.758C-0.955,4.785 -0.148,3.995 0.846,3.995L23.488,3.995C24.482,3.995 25.289,4.785 25.289,5.758Z"/>
            </g>
            <g transform="matrix(0.304802,0,0,0.304802,24.966,27.2314)">
                <path d="M25.289,5.758L25.289,39.172C25.289,40.145 24.482,40.935 23.488,40.935L0.846,40.935C-0.148,40.935 -0.955,40.145 -0.955,39.172L-0.955,5.758C-0.955,4.785 -0.148,3.995 0.846,3.995L23.488,3.995C24.482,3.995 25.289,4.785 25.289,5.758Z"/>
            </g>
        </g>
        <g transform="matrix(1.28,0,0,1.27915,-77.4309,-26.7434)">
            <g transform="matrix(1,0,0,0.920014,0,0.0664385)">
                <path d="M100,6.934L100,64.633C100,68.001 97.486,70.736 94.389,70.736L5.611,70.736C2.514,70.736 0,68.001 0,64.633L0,6.934C0,3.565 2.514,0.831 5.611,0.831L94.389,0.831C97.486,0.831 100,3.565 100,6.934ZM97.656,6.934C97.656,4.972 96.192,3.38 94.389,3.38L5.611,3.38C3.808,3.38 2.344,4.972 2.344,6.934L2.344,64.633C2.344,66.594 3.808,68.186 5.611,68.186L94.389,68.186C96.192,68.186 97.656,66.594 97.656,64.633L97.656,6.934Z"/>
            </g>
            <g transform="matrix(0.85863,0,0,0.718169,7.06852,7.28906)">
                <path d="M100,6.934L100,64.633C100,68.001 97.714,70.736 94.899,70.736L5.101,70.736C2.286,70.736 0,68.001 0,64.633L0,6.934C0,3.565 2.286,0.831 5.101,0.831L94.899,0.831C97.714,0.831 100,3.565 100,6.934ZM98.635,6.934C98.635,4.466 96.961,2.463 94.899,2.463L5.101,2.463C3.039,2.463 1.365,4.466 1.365,6.934L1.365,64.633C1.365,67.1 3.039,69.103 5.101,69.103L94.899,69.103C96.961,69.103 98.635,67.1 98.635,64.633L98.635,6.934Z"/>
            </g>
        </g>
    </g>
</svg>
